<svg width="280" height="280" xmlns="http://www.w3.org/2000/svg"><g fill="none" fill-rule="evenodd"><circle fill="#F3F5FB" cx="140" cy="140" r="140"/><path d="M112.885 102.188v4.726H90.133A4.12 4.12 0 0086 111.055v72.655c0 11.753 9.518 21.29 21.25 21.29h65.5c11.732 0 21.25-9.537 21.25-21.29v-72.655a4.12 4.12 0 00-4.133-4.14h-22.752v-4.727c0-14.974-12.149-27.188-27.136-27.188-14.945.042-27.094 12.214-27.094 27.188zm50.097 27.439a4.12 4.12 0 004.133-4.141v-10.29h18.62v68.514c0 7.194-5.846 13.008-12.984 13.008h-65.502c-7.18 0-12.983-5.856-12.983-13.008v-68.514h18.62v10.29a4.12 4.12 0 004.132 4.14 4.12 4.12 0 004.133-4.14v-10.29h37.698v10.29a4.12 4.12 0 004.133 4.14zm-4.133-27.44v4.727H121.15v-4.726c0-10.415 8.475-18.906 18.87-18.906 10.353.042 18.828 8.49 18.828 18.906z" fill="#E2E5ED" fill-rule="nonzero"/></g></svg>